<?xml version="1.0" encoding="utf-8"?>
<!-- Generator: Adobe Illustrator 19.1.0, SVG Export Plug-In . SVG Version: 6.00 Build 0)  -->
<svg version="1.1" id="Layer_1" xmlns="http://www.w3.org/2000/svg" xmlns:xlink="http://www.w3.org/1999/xlink" x="0px" y="0px"
	 viewBox="0 0 695.3 617.6" enable-background="new 0 0 695.3 617.6" xml:space="preserve">
<g>
	<g>
		<g>
			<g>
				<g>
					<polygon fill="#748891" points="187.8,416.2 143.9,416.2 76.5,416.2 123.5,370 76.5,323.9 143.9,323.9 187.8,323.9 187.8,370 
											"/>
				</g>
				<g>
					<path fill="#546E7A" d="M141.7,369.9l36,46.2l10-46.4C187.8,369.8,141.6,369.7,141.7,369.9z"/>
				</g>
			</g>
			<g>
				<g>
					<g>
						<polygon fill="#748891" points="501.8,416.2 545.7,416.2 613.1,416.2 566.1,370 613.1,323.9 545.7,323.9 501.8,323.9 
							501.8,370 						"/>
					</g>
					<g>
						<path fill="#546E7A" d="M547.8,369.9l-38,46.2l-8-46.3C501.8,369.8,548,369.7,547.8,369.9z"/>
					</g>
				</g>
			</g>
		</g>
	</g>
</g>
<g>
	<polygon fill="#546E7A" points="512.3,136.3 559,183 177,575.5 90,606 121,518 	"/>
	<polygon fill="#7A919D" points="90,606 522.8,173.6 498.6,149.4 121,518 	"/>
	<path fill="#FF9F00" d="M681.8,7.5l2.7,2.8l-149,149l69,69l15.6-15.6c4.7-4.7,4.7-12.3,0-17l-38.1-38.1l74-87.9
		c1.4,0.2,2.8,0.3,4.3,0.3c19.3,0,35-15.7,35-35C695.3,23.9,690,13.9,681.8,7.5z"/>
	<path fill="#FFB100" d="M687.8,13.5l-2.8-2.7l-149,149l-69-69l15.6-15.6c4.7-4.7,12.3-4.7,17,0l38.1,38.1l87.9-74
		c-0.2-1.4-0.3-2.8-0.3-4.3c0-19.3,15.7-35,35-35C671.4,0,681.4,5.3,687.8,13.5z"/>
</g>
<g>
	<polygon fill="#546E7A" points="512.3,136.3 559,183 177,575.5 90,606 121,518 	"/>
	<polygon fill="#7A919D" points="90,606 522.8,173.6 498.6,149.4 121,518 	"/>
	<path fill="#FF9F00" d="M681.8,7.5l2.7,2.8l-149,149l69,69l15.6-15.6c4.7-4.7,4.7-12.3,0-17l-38.1-38.1l74-87.9
		c1.4,0.2,2.8,0.3,4.3,0.3c19.3,0,35-15.7,35-35C695.3,23.9,690,13.9,681.8,7.5z"/>
	<path fill="#FFB100" d="M687.8,13.5l-2.8-2.7l-149,149l-69-69l15.6-15.6c4.7-4.7,12.3-4.7,17,0l38.1,38.1l87.9-74
		c-0.2-1.4-0.3-2.8-0.3-4.3c0-19.3,15.7-35,35-35C671.4,0,681.4,5.3,687.8,13.5z"/>
</g>
<g>
	<polygon fill="#546E7A" points="183,136.3 136.3,183 518.3,575.5 605.3,606 574.3,518 	"/>
	<polygon fill="#7A919D" points="605.3,606 172.5,173.6 196.7,149.4 574.3,518 	"/>
	<path fill="#FF9F00" d="M13.5,7.5l-2.7,2.8l149,149l-69,69l-15.6-15.6c-4.7-4.7-4.7-12.3,0-17l38.1-38.1l-74-87.9
		c-1.4,0.2-2.8,0.3-4.3,0.3c-19.3,0-35-15.7-35-35C0,23.9,5.3,13.9,13.5,7.5z"/>
	<path fill="#FFB100" d="M7.5,13.5l2.8-2.7l149,149l69-69l-15.6-15.6c-4.7-4.7-12.3-4.7-17,0l-38.1,38.1l-87.9-74
		c0.2-1.4,0.3-2.8,0.3-4.3c0-19.3-15.7-35-35-35C23.9,0,13.9,5.3,7.5,13.5z"/>
</g>
<g>
	<g>
		<path fill="#FF0000" stroke="#FFB100" stroke-width="23.1777" stroke-miterlimit="10" d="M344,582.9
			c-13.5,0-161.4-117.1-161.4-361.1c0,0,39.8-65.2,161.4-65.2s161.4,65.2,161.4,65.2C505.4,465.7,357.5,582.9,344,582.9z"/>
		<path fill="#FFFFFF" stroke="#FFB100" stroke-width="23.1777" stroke-miterlimit="10" d="M344,606c-4.5,0-16.5,0-46.8-28.4
			c-14.3-13.5-36.1-36.8-58.5-71.3c-36.2-56-79.4-150.8-79.4-284.6v-6.5l3.4-5.6c1.9-3.1,48.1-76.3,181.2-76.3
			s179.3,73.2,181.2,76.3l3.4,5.6v6.5c0,133.8-43.2,228.6-79.4,284.6c-22.3,34.5-44.1,57.8-58.5,71.3C360.5,606,348.5,606,344,606z
			 M205.8,229.5c1.5,113.1,36.6,194.1,66.1,242.5c29.3,48,58.9,74.7,72.1,84.6c13.2-9.9,42.8-36.5,72.1-84.6
			c29.5-48.4,64.6-129.5,66.1-242.5c-4.4-5.1-13-13.8-26.9-22.4c-28.9-17.9-67.4-27.3-111.3-27.3s-82.5,9.4-111.3,27.3
			C218.8,215.7,210.2,224.4,205.8,229.5z"/>
	</g>
	<path fill="#FF0000" stroke="#FFFFFF" stroke-width="46.3554" stroke-miterlimit="10" d="M344,582.9
		c-13.5,0-161.4-117.1-161.4-361.1c0,0,39.8-65.2,161.4-65.2s161.4,65.2,161.4,65.2C505.4,465.7,357.5,582.9,344,582.9z"/>
	<path fill="#FF9F00" d="M344,582.9c-13.5,0-161.4-117.1-161.4-361.1c0,0,39.8-65.2,161.4-65.2s161.4,65.2,161.4,65.2
		C505.4,465.7,357.5,582.9,344,582.9z"/>
	<path fill="#FFB100" d="M488.6,203L488.6,203c-21.6-19.3-66-46.4-144.6-46.4c-121.7,0-161.4,65.2-161.4,65.2
		c0,98.3,24,176,53.6,233.7L488.6,203z"/>
</g>
<g>
	<g>
		<path fill="#FFFFFF" d="M273.8,450h31.8v4.6h-37.3v-64.5h5.5V450z"/>
		<path fill="#FFFFFF" d="M351.8,436.5h-29.3l-6.6,18.1h-5.7l24.4-64.5h5.2l24.4,64.5h-5.7L351.8,436.5z M324.2,431.9H350
			l-12.9-35.1L324.2,431.9z"/>
		<path fill="#FFFFFF" d="M421.6,454.6h-5.4l-37.1-55.2v55.2h-5.5v-64.5h5.5l37.1,55.2v-55.2h5.4V454.6z"/>
	</g>
</g>
<g>
	<g>
		<g>
			<rect x="142" y="277.8" fill="#7A919D" width="405.9" height="92.2"/>
		</g>
		<g>
			<g>
				<path fill="#FFFFFF" d="M208.2,334.6c-0.3,3-1,5.7-2.1,8.2c-1.1,2.5-2.7,4.7-4.6,6.5c-2,1.8-4.4,3.3-7.2,4.3
					c-2.8,1-6.1,1.5-9.9,1.5c-3.7,0-7.1-0.7-10.1-2c-3-1.3-5.6-3.3-7.7-5.8c-2.1-2.5-3.8-5.5-4.9-9c-1.1-3.5-1.7-7.5-1.7-11.9v-4.9
					c0-4.4,0.6-8.3,1.8-11.9c1.2-3.5,2.8-6.6,5-9.1c2.2-2.5,4.8-4.4,7.9-5.8c3.1-1.4,6.5-2,10.3-2c3.6,0,6.8,0.5,9.6,1.6
					c2.8,1,5.1,2.5,7.1,4.3c1.9,1.8,3.4,4,4.5,6.6c1.1,2.6,1.8,5.3,2.1,8.4h-10.5c-0.2-1.9-0.6-3.6-1.1-5.2
					c-0.5-1.5-1.3-2.8-2.3-3.9s-2.3-1.9-3.8-2.4c-1.5-0.6-3.4-0.8-5.5-0.8c-2.4,0-4.5,0.5-6.3,1.4c-1.8,0.9-3.3,2.2-4.5,3.9
					c-1.2,1.7-2.1,3.8-2.7,6.3c-0.6,2.5-0.9,5.3-0.9,8.5v5c0,3,0.3,5.8,0.8,8.3c0.5,2.5,1.3,4.6,2.5,6.4c1.1,1.8,2.5,3.1,4.3,4.1
					c1.8,1,3.8,1.5,6.3,1.5c2.3,0,4.2-0.3,5.8-0.8c1.6-0.5,2.9-1.3,3.9-2.3c1-1,1.8-2.3,2.4-3.8c0.6-1.5,1-3.2,1.2-5.2H208.2z"/>
				<path fill="#FFFFFF" d="M272.4,325.6c0,4.6-0.6,8.7-1.8,12.4c-1.2,3.7-2.9,6.8-5.1,9.3c-2.2,2.5-4.8,4.5-7.9,5.9
					c-3.1,1.4-6.5,2-10.3,2c-3.7,0-7.1-0.7-10.2-2s-5.7-3.3-8-5.9c-2.2-2.5-4-5.6-5.2-9.3c-1.2-3.7-1.9-7.8-1.9-12.4v-3.1
					c0-4.6,0.6-8.8,1.9-12.4c1.2-3.7,3-6.8,5.2-9.3c2.2-2.6,4.9-4.5,7.9-5.9c3.1-1.4,6.5-2,10.2-2c3.8,0,7.2,0.7,10.3,2
					c3.1,1.4,5.8,3.3,8,5.9c2.2,2.6,3.9,5.7,5.1,9.3c1.2,3.7,1.8,7.8,1.8,12.4V325.6z M261.9,322.4c0-3.4-0.3-6.4-1-9
					c-0.7-2.6-1.6-4.8-2.9-6.5c-1.3-1.8-2.8-3.1-4.6-4c-1.8-0.9-3.9-1.4-6.2-1.4c-2.3,0-4.3,0.5-6.1,1.4c-1.8,0.9-3.3,2.2-4.6,4
					c-1.3,1.8-2.2,3.9-2.9,6.5c-0.7,2.6-1,5.6-1,9v3.2c0,3.4,0.3,6.4,1,9c0.7,2.6,1.7,4.8,2.9,6.6c1.3,1.8,2.8,3.1,4.6,4
					c1.8,0.9,3.9,1.4,6.1,1.4c4.7,0,8.3-1.8,10.8-5.3c2.5-3.6,3.8-8.8,3.8-15.6V322.4z"/>
				<path fill="#FFFFFF" d="M303,293.7l17.5,46.5l17.5-46.5h13.6v60.7h-10.5v-20l1-26.8l-17.9,46.8h-7.5l-17.9-46.7l1,26.7v20h-10.5
					v-60.7H303z"/>
				<path fill="#FFFFFF" d="M370.4,354.3v-60.7h20.8c3.3,0,6.2,0.3,8.8,1c2.6,0.7,4.8,1.6,6.6,3c1.8,1.3,3.2,3,4.1,5.1
					c1,2.1,1.4,4.5,1.4,7.4c0,2.8-0.8,5.3-2.3,7.5c-1.5,2.2-3.7,3.9-6.6,5.2c1.8,0.5,3.3,1.2,4.6,2.1c1.3,0.9,2.4,2,3.2,3.2
					c0.8,1.2,1.5,2.6,1.9,4c0.4,1.5,0.6,3,0.6,4.6c0,2.9-0.5,5.5-1.4,7.7c-1,2.2-2.3,4.1-4.2,5.5c-1.8,1.5-4,2.6-6.6,3.4
					c-2.6,0.8-5.5,1.1-8.8,1.1H370.4z M381,319.2h10.3c3.3,0,5.8-0.7,7.7-2.2c1.8-1.5,2.8-3.6,2.8-6.3c0-3-0.9-5.2-2.6-6.5
					s-4.4-2-8-2H381V319.2z M381,327v19h11.7c1.7,0,3.2-0.2,4.6-0.7c1.3-0.4,2.4-1.1,3.3-1.9c0.9-0.8,1.6-1.8,2-2.9
					c0.4-1.1,0.7-2.4,0.7-3.8c0-3-0.8-5.4-2.4-7.1c-1.6-1.7-4.2-2.6-7.7-2.6H381z"/>
				<path fill="#FFFFFF" d="M464.6,340.2h-23.5l-4.9,14.1h-11l22.9-60.7h9.5l23,60.7h-11L464.6,340.2z M444.1,331.7h17.6l-8.8-25.2
					L444.1,331.7z"/>
				<path fill="#FFFFFF" d="M532.7,302.2h-18.9v52.2h-10.5v-52.2h-18.8v-8.5h48.1V302.2z"/>
			</g>
		</g>
	</g>
</g>
<path fill="#FFFFFF" d="M468.6,214.9c-1.7-0.3-4-1.4-4.7-3.3h-2.7v0.5h-0.6v-0.7h-1v-0.7h-0.8v-9.6c0-0.4-0.3-0.7-0.7-0.7h-3.2
	c-0.4,0-0.7,0.3-0.7,0.7v2.3l-3.8,8v0.7h-16.5v-0.6c-4.9,0-7-3.8-8.6-6.6h-17.6v-0.5h-3.9v-0.1c0-0.4-0.3-0.7-0.7-0.7h-0.6
	c-0.1-0.3-0.4-0.5-0.7-0.5l-25.8-0.8c-0.2,0-0.5,0.1-0.6,0.3h-0.9c-0.4,0-0.7,0.3-0.7,0.7v0.3h-1.5v-1.7c0-0.4-0.3-0.7-0.7-0.7h-3.7
	c-0.1-0.3-0.4-0.6-0.7-0.6c-0.3,0-0.6,0.2-0.7,0.5h-9.1c-0.1-0.1-0.1-0.1-0.3-0.1h-1.4c-0.1,0-0.2,0.1-0.3,0.1h-0.5v-0.3l-0.8-0.5
	v1.1h1.2v0.5c0,0.2,0.1,0.3,0.3,0.3h0.3v0.2c0,0.1,0.1,0.1,0.1,0.1h0c-0.2,0-0.4,0.1-0.5,0.3c-0.1,0-0.3,0-0.4,0v1.9H299
	c0,0-0.7-0.2-1.3,0.1c-0.6,0.3-1,0.7-1,0.7l-2.3,2.6H293l-1.2,1.7h1l-1.9,2.2h-1l0,0.3c-2.6,0.2-15.1,2.5-16.9,2.9
	c-1.9,0.4-3.7,0.6-5.2,0c-1.5-0.6-3.6-1.7-6.7-1.4c-3.1,0.3-33.6,3.6-34,4.5c-0.1,0.1-0.1,0.2-0.2,0.3c-0.1-0.3-0.3-0.4-0.5-0.3
	c-0.5,0.2-0.9,0.6-0.4,3.1c0.5,2.5,2.7,19.6,2.8,21.3c0.1,1.7,1.1,1.8,1.5,1.5c0-0.1,0-0.1,0-0.2c0.4,0.1,1,0.1,1.9-0.3
	c2.1-0.9,56.8-19.5,59-20.2l2.2-0.1v1.1c0,0.3,0.2,0.5,0.4,0.6l-0.1,0c-0.3,0.9-0.5,1.9,0.4,3.2c0.9,1.3,0.4,3.4-0.2,5.3
	c-0.6,1.9-2.6,7.5-3.9,10.9c-1.3,3.3,0.1,4.5,1.2,5.4c1.1,0.9,5,1.5,7.2,1c2.2-0.5,2.2-2,2.2-2.4c0-0.4,0-1.5,0.3-2.5
	c0.3-1,4.5-10.8,5.3-12.7c0.8-1.8,1.7-2.8,2.8-3.7c1.2,1.9,2.4,2.9,3.9,2.9c1.5,0,5.1-0.1,7.4-0.1c2.1,0,3.3-1.2,4-2.6h1.9l0.3,0.7
	l-0.3,2.6l0.5,0.2l1-3.5h0.1c0.4,0,0.7-0.3,0.7-0.7v-4.4h0.9v1.4h1.8c2.3,14.5,10.3,31.2,29.5,42.8l1-1.6l5.6-8.9l1.9-3
	c-15.5-10.6-20.8-23-22.5-34.3l13.3-0.5v0c0,0.4,0.3,0.7,0.7,0.7h2v0.3c0,0.4,0.3,0.7,0.7,0.7c0,0,1.8,0,2.9-0.2
	c1.1-0.2,4.4-1.3,5.4-1.5c0.9-0.2,2.7-0.3,4.2-0.3c1.5,0,25.3-0.8,25.3-0.8c0.3,0,0.5-0.2,0.6-0.4h0.9c0.2,0,0.4-0.1,0.5-0.2h0.7
	v-1.2h20.3v0.5h1.8v-0.5h29.1v0.4h2v-1.4c0.1,0.1,0.2,0.3,0.3,0.4h0.9v-1.2h1.9v-0.6h0.6v0.5h7.4L468.6,214.9
	C468.6,214.9,468.6,214.9,468.6,214.9z M452.7,209.2c0-0.4,0.3-2.3,2.3-2.3h2.2c0.4,0,0.7,0.3,0.7,0.7v2c0,0.4-0.3,0.7-0.7,0.7h-3.8
	c-0.4,0-0.7-0.3-0.7-0.7V209.2z M423.8,209.5v2.6h-17.2v-1.6h-2.8v-0.9h3.9v-0.2h11.1v0.1H423.8z M414.6,205.3
	c0.3,0,0.5,0.2,0.5,0.5c0,0.3-0.2,0.5-0.5,0.5c-0.3,0-0.5-0.2-0.5-0.5C414.1,205.6,414.3,205.3,414.6,205.3z M412.4,205.3
	c0.3,0,0.5,0.2,0.5,0.5c0,0.3-0.2,0.5-0.5,0.5c-0.3,0-0.5-0.2-0.5-0.5C411.9,205.6,412.1,205.3,412.4,205.3z M410.2,205.3
	c0.3,0,0.5,0.2,0.5,0.5c0,0.3-0.2,0.5-0.5,0.5s-0.5-0.2-0.5-0.5C409.7,205.6,409.9,205.3,410.2,205.3z M356.6,202.5L356.6,202.5
	c0.1,0,0.2-0.1,0.2-0.1v-0.2h0.2c0.2,0,0.3-0.1,0.3-0.3v-0.5h6.9c-2.2,1.1-4.2,1.4-7.2,1.4C356.9,202.7,356.8,202.6,356.6,202.5z
	 M320.4,231.8c-2.3,0-5.9,0.1-7.4,0.1c-1.1,0-2.1-0.7-3.3-2.7c0.6-0.7,0.6-1.1,0.6-1.6c0-0.5-0.8-1-0.8-1c0.4,0,0.7-0.1,0.8-0.5
	l0-2.4c0.5,0.3,1.1,0.6,1.3,0.7c0.6,0.3,1.2,0.4,1.6,2.2c0.4,1.8,2.4,3.1,4,3.5c0.9,0.2,1.1-0.3,0.2-0.5c-2-0.4-3.1-2.4-3.2-3.1
	c-0.1-0.7,0.2-2.4,1.2-3.5l1.9-0.1l0.2-0.5l6.2-0.3v6.9c0,0.1,0,0.2,0.1,0.3C323.1,230.8,322.1,231.8,320.4,231.8z M398.9,210.4
	c0,0.4-0.3,0.7-0.7,0.7h-6.8c-0.4,0-0.7-0.3-0.7-0.7v-0.3h-5.1v0.3c0,0.4-0.3,0.7-0.7,0.7H378c-0.4,0-0.7-0.3-0.7-0.7v-0.3h-0.8
	v-0.8h0.8V209c0-0.4,0.3-0.7,0.7-0.7h6.8c0.4,0,0.7,0.3,0.7,0.7v0.4h5.1V209c0-0.4,0.3-0.7,0.7-0.7h6.8c0.4,0,0.7,0.3,0.7,0.7v0.4
	h2.3v0.8h-2.3V210.4z M404.3,216.9v-0.6h2.3v-0.8h17.2v1.2h0.8v0.2H404.3z M454.3,216.1v0.8h-27.9v-0.2h1.1v-0.4h6.3v-0.8h16.5v0.6
	H454.3z"/>
<g>
	<path fill="#FFFFFF" d="M344,477.2c12.1,0,24.3,0,36.4,0c0.3,0,0.6,0,1,0c1.5,0,1.7,0.3,1.7,1.8c0,6.4,0,12.7,0,19.1
		c0,8.2,0,16.3,0,24.5c0,1.9-0.2,2.1-2.1,2.1c-4.5,0-9,0-13.5,0c-1.6,0-1.8,0.2-1.8,1.8c0,2.7,0,5.4,0,8c0,1.6-0.2,1.8-1.8,1.8
		c-1.5,0-3,0-4.6,0c-1.1,0-1.6,0.4-1.6,1.6c0,1.8,0,3.6,0,5.4c0,1.4-0.3,1.7-1.7,1.7c-8.1,0-16.3,0-24.4,0c-1.3,0-1.6-0.3-1.7-1.6
		c0-1.7,0-3.4,0-5c0-1.8-0.2-2-2.1-2c-1.4,0-2.9,0-4.3,0c-1.1,0-1.6-0.5-1.6-1.6c0-2.7,0-5.4,0-8.2c0-1.7-0.2-1.9-1.9-1.9
		c-4.5,0-9,0-13.5,0c-1.8,0-2-0.2-2-2c0-14.5,0-29,0-43.5c0-1.8,0.2-2,2.1-2C319.1,477.2,331.6,477.2,344,477.2
		C344,477.2,344,477.2,344,477.2z M319.2,488.4C319.2,488.4,319.2,488.4,319.2,488.4c0,2.1,0,4.2,0,6.2c0,0.8,0.3,1.2,1.2,1.2
		c1-0.1,2.1,0,3.1,0c0.7,0,1-0.2,1-0.9c0-4.3,0-8.6,0-12.8c0-0.6-0.3-0.9-0.9-0.9c-1.1,0-2.2,0-3.2,0c-0.9,0-1.1,0.3-1.1,1.1
		C319.2,484.4,319.2,486.4,319.2,488.4z M368.5,488.6C368.5,488.6,368.5,488.6,368.5,488.6c0-2,0-3.9,0-5.9c0-1.1-0.2-1.8-1.5-1.6
		c-0.8,0.1-1.6,0.1-2.4,0c-1.2-0.1-1.5,0.4-1.4,1.5c0.1,0.9,0,1.8,0,2.8c0,3,0,5.9,0,8.9c0,1.6,0,1.6,1.6,1.6c0.8,0,1.5-0.1,2.3,0
		c1.2,0.1,1.4-0.4,1.4-1.5C368.4,492.5,368.5,490.6,368.5,488.6z M315.7,488.5c0-2,0-4.1,0-6.1c0-1-0.3-1.3-1.3-1.2
		c-1,0.1-2.1,0-3.1,0c-0.7,0-0.9,0.2-0.9,0.9c0,4.3,0,8.6,0,12.8c0,0.7,0.3,0.9,0.9,0.9c1,0,2.1-0.1,3.1,0c0.9,0.1,1.3-0.2,1.3-1.2
		C315.7,492.6,315.7,490.6,315.7,488.5z M333.3,488.7c0-2.1,0-4.2,0-6.4c0-0.8-0.3-1.1-1.1-1.1c-1.1,0-2.2,0-3.2,0
		c-0.6,0-0.9,0.2-0.9,0.9c0,4.3,0,8.6,0,12.8c0,0.7,0.3,0.9,0.9,0.9c1,0,2-0.1,3,0c1,0.1,1.4-0.3,1.4-1.3
		C333.2,492.6,333.3,490.6,333.3,488.7z M342.1,488.6C342.1,488.6,342.1,488.6,342.1,488.6c0-2.1,0-4.2,0-6.2c0-0.8-0.3-1.2-1.1-1.1
		c-1,0.1-2.1,0-3.1,0c-0.8,0-1.1,0.3-1.1,1.1c0,4.2,0,8.4,0,12.6c0,0.7,0.3,1,1,1c1,0,2.1,0,3.1,0c0.9,0.1,1.2-0.3,1.2-1.2
		C342.1,492.7,342.1,490.6,342.1,488.6z M345.6,488.5C345.6,488.5,345.6,488.5,345.6,488.5c0,1.1,0,2.2,0,3.4c0,4.3,0,4.3,4.3,4
		c0,0,0.1,0,0.1,0c0.6,0,0.9-0.3,0.9-0.9c0-4.3,0-8.6,0-12.9c0-0.6-0.3-0.9-0.9-0.9c-1.1,0-2.2,0.1-3.2,0c-0.9-0.1-1.2,0.3-1.2,1.2
		C345.6,484.4,345.6,486.4,345.6,488.5z M359.7,488.6c0-1.1,0-2.2,0-3.4c-0.1-1.3,0.6-3-0.3-3.8c-0.9-0.8-2.5-0.2-3.8-0.2
		c-0.1,0-0.2,0-0.2,0c-0.6,0-0.9,0.2-0.9,0.8c0,4.3,0,8.6,0,13c0,0.6,0.3,0.9,0.9,0.8c1.1,0,2.2,0,3.2,0c0.9,0,1.2-0.3,1.2-1.2
		C359.7,492.7,359.7,490.6,359.7,488.6z M377.3,488.5c0-2.1,0-4.2,0-6.2c0-0.8-0.3-1.1-1-1c-1.1,0-2.2,0-3.2,0c-0.8,0-1,0.3-1,1.1
		c0,4.2,0,8.3,0,12.5c0,0.8,0.2,1.2,1.1,1.1c1-0.1,2-0.1,3,0c1,0.1,1.2-0.4,1.2-1.3C377.2,492.6,377.3,490.5,377.3,488.5z"/>
	<path fill="#FF9F00" d="M319.2,488.4c0-2,0-4.1,0-6.1c0-0.8,0.3-1.2,1.1-1.1c1.1,0.1,2.2,0,3.2,0c0.7,0,0.9,0.3,0.9,0.9
		c0,4.3,0,8.6,0,12.8c0,0.7-0.3,0.9-1,0.9c-1,0-2.1-0.1-3.1,0c-0.9,0.1-1.2-0.3-1.2-1.2C319.2,492.6,319.2,490.5,319.2,488.4
		C319.2,488.4,319.2,488.4,319.2,488.4z"/>
	<path fill="#FF9F00" d="M368.5,488.6c0,1.9,0,3.8,0,5.8c0,1-0.2,1.6-1.4,1.5c-0.8-0.1-1.5,0-2.3,0c-1.6,0-1.6,0-1.6-1.6
		c0-3,0-5.9,0-8.9c0-0.9,0-1.8,0-2.8c-0.1-1,0.2-1.6,1.4-1.5c0.8,0.1,1.6,0.1,2.4,0c1.3-0.2,1.6,0.5,1.5,1.6
		C368.4,484.7,368.5,486.7,368.5,488.6C368.5,488.6,368.5,488.6,368.5,488.6z"/>
	<path fill="#FF9F00" d="M315.7,488.5c0,2,0,4.1,0,6.1c0,1-0.3,1.3-1.3,1.2c-1-0.1-2.1,0-3.1,0c-0.7,0-0.9-0.2-0.9-0.9
		c0-4.3,0-8.6,0-12.8c0-0.7,0.3-0.9,0.9-0.9c1,0,2.1,0.1,3.1,0c0.9-0.1,1.3,0.3,1.3,1.2C315.7,484.4,315.7,486.5,315.7,488.5z"/>
	<path fill="#FF9F00" d="M333.3,488.7c0,2-0.1,3.9,0,5.9c0,1.1-0.4,1.4-1.4,1.3c-1-0.1-2,0-3,0c-0.7,0-0.9-0.3-0.9-0.9
		c0-4.3,0-8.6,0-12.8c0-0.7,0.3-0.9,0.9-0.9c1.1,0,2.2,0,3.2,0c0.8,0,1.1,0.3,1.1,1.1C333.3,484.4,333.3,486.5,333.3,488.7z"/>
	<path fill="#FF9F00" d="M342.1,488.6c0,2,0,4.1,0,6.1c0,0.9-0.3,1.2-1.2,1.2c-1-0.1-2.1,0-3.1,0c-0.7,0-1-0.3-1-1
		c0-4.2,0-8.4,0-12.6c0-0.8,0.3-1.1,1.1-1.1c1,0,2.1,0,3.1,0c0.9,0,1.1,0.3,1.1,1.1C342.1,484.4,342.1,486.5,342.1,488.6
		C342.1,488.6,342.1,488.6,342.1,488.6z"/>
	<path fill="#FF9F00" d="M345.6,488.5c0-2,0-4.1,0-6.1c0-0.9,0.3-1.2,1.2-1.2c1.1,0.1,2.2,0,3.2,0c0.6,0,0.9,0.2,0.9,0.9
		c0,4.3,0,8.6,0,12.9c0,0.6-0.3,0.9-0.9,0.9c0,0-0.1,0-0.1,0c-4.3,0.3-4.3,0.3-4.3-4C345.6,490.7,345.6,489.6,345.6,488.5
		C345.6,488.5,345.6,488.5,345.6,488.5z"/>
	<path fill="#FF9F00" d="M359.7,488.6c0,2,0,4.1,0,6.1c0,0.9-0.3,1.2-1.2,1.2c-1.1-0.1-2.2,0-3.2,0c-0.6,0-0.9-0.2-0.9-0.8
		c0-4.3,0-8.6,0-13c0-0.6,0.3-0.9,0.9-0.8c0.1,0,0.2,0,0.2,0c1.3,0.1,3-0.5,3.8,0.2c0.9,0.8,0.2,2.5,0.3,3.8
		C359.7,486.3,359.7,487.5,359.7,488.6z"/>
	<path fill="#FF9F00" d="M377.3,488.5c0,2,0,4.1,0,6.1c0,0.9-0.2,1.3-1.2,1.3c-1-0.1-2-0.1-3,0c-0.9,0-1.1-0.3-1.1-1.1
		c0-4.2,0-8.3,0-12.5c0-0.8,0.2-1.1,1-1.1c1.1,0,2.2,0,3.2,0c0.8,0,1.1,0.3,1,1C377.2,484.3,377.3,486.4,377.3,488.5z"/>
</g>
</svg>
